<?xml version="1.0" encoding="UTF-8"?>
<svg id="Layer_1" data-name="Layer 1" xmlns="http://www.w3.org/2000/svg" viewBox="0 0 192.74 62.52">
  <defs>
    <style>
      .cls-1 {
        letter-spacing: -.05em;
      }

      .cls-2 {
        stroke-width: 0px;
      }

      .cls-2, .cls-3 {
        fill: #fff;
      }

      .cls-3 {
        font-family: TTRamillas-Bold, 'TT Ramillas';
        font-size: 22.77px;
        font-weight: 700;
      }
    </style>
  </defs>
  <path class="cls-2" d="M26.63,18.73c-1.71-1.53-3.75-2.45-6.33-2.74v-.2c2.26-.29,3.92-1.09,5.42-2.4,1.5-1.31,2.29-3.05,2.29-5.24,0-2.84-1.13-4.88-3.43-6.21s-5.18-1.94-8.68-1.94H0v.17c1.29,1.67,1.93,3.98,1.93,6.96v19.89c0,2.97-.64,5.29-1.93,6.96v.2h15.91c.43,0,.84.01,1.26,0l11.76-11.79c-.39-1.43-1.18-2.63-2.3-3.63ZM10.31,1.88c.97-.46,2.02-.69,3.07-.69,1.76,0,3.19.65,4.25,1.96,1.06,1.31,1.6,2.99,1.6,5.05s-.54,3.76-1.64,5.07c-1.09,1.31-2.6,1.88-4.53,1.88h-2.75V1.88ZM18.63,30.81c-1.22,1.42-2.86,2.13-4.86,2.13-1.4,0-2.49-.28-3.46-.83v-15.35h2.95c2.25,0,4.02.66,5.29,2.06,1.27,1.4,1.91,3.41,1.91,6.05s-.61,4.51-1.84,5.93Z"/>
  <path class="cls-2" d="M42.41,59.03c-.62-1.06-1.23-2.27-1.85-3.81l-10.56-26.86h0l-8.96,8.87-7.23,18.19c-1.05,2.65-2.84,4.89-4.77,6.82v.29h8.06v-.29c-1.29-1.4-1.93-2.99-1.93-4.75,0-1.01.21-1.99.6-2.9l1.39-3.34h12.64l1.57,3.83c.42,1.05.64,2.08.64,3.09,0,1.54-.73,2.9-1.37,4.07v.29h14.18v-.29c-.97-1.08-1.77-2.15-2.39-3.21ZM17.59,49.96l5.88-15.04,5.83,15.04h-11.71Z"/>
  <polygon class="cls-2" points="16.67 34.15 15.37 34.16 44.4 5.59 45.34 6.51 16.67 34.15"/>
  <polygon class="cls-2" points="1.26 58.33 .33 57.42 30.3 28.07 30.3 29.16 1.26 58.33"/>
  <text class="cls-3" transform="translate(55.17 36.24)"><tspan x="0" y="0">Banjara</tspan><tspan class="cls-1" x="82.04" y="0"> </tspan><tspan x="86.59" y="0">Agro</tspan></text>
</svg>