<?xml version="1.0" encoding="UTF-8"?>
<svg id="Layer_1" data-name="Layer 1" xmlns="http://www.w3.org/2000/svg" version="1.1" viewBox="0 0 720 300">
  <defs>
    <style>
      .cls-1 {
        font-family: TTRamillas-Bold, 'TT Ramillas';
        font-size: 78.6px;
        font-weight: 700;
      }

      .cls-1, .cls-2 {
        fill: #fff;
      }

      .cls-2 {
        stroke-width: 0px;
      }
    </style>
  </defs>
  <path class="cls-2" d="M118.9,111.2c-5.9-5.3-12.9-8.5-21.8-9.5v-.7c7.8-1,13.5-3.8,18.7-8.3,5.2-4.5,7.9-10.5,7.9-18.1s-3.9-16.9-11.8-21.4-17.9-6.7-29.9-6.7H27v.6c4.4,5.7,6.7,13.7,6.7,24v68.6c0,10.3-2.2,18.3-6.7,24v.7h54.9c1.5,0,2.9,0,4.3,0l40.6-40.7c-1.3-4.9-4.1-9.1-7.9-12.5ZM62.6,53.1c3.3-1.6,7-2.4,10.6-2.4,6.1,0,11,2.3,14.7,6.8,3.7,4.5,5.5,10.3,5.5,17.4s-1.9,13-5.6,17.5c-3.8,4.5-9,6.5-15.6,6.5h-9.5v-45.8ZM91.3,152.9c-4.2,4.9-9.9,7.4-16.8,7.4s-8.6-1-11.9-2.9v-52.9h10.2c7.8,0,13.9,2.3,18.3,7.1,4.4,4.8,6.6,11.8,6.6,20.9s-2.1,15.6-6.3,20.5Z"/>
  <path class="cls-2" d="M173.3,250.2c-2.1-3.7-4.3-7.8-6.4-13.1l-36.4-92.7h0l-30.9,30.6-25,62.8c-3.6,9.1-9.8,16.9-16.5,23.5v1h27.8v-1c-4.4-4.8-6.6-10.3-6.6-16.4s.7-6.9,2.1-10l4.8-11.5h43.6l5.4,13.2c1.5,3.6,2.2,7.2,2.2,10.7,0,5.3-2.5,10-4.7,14v1h48.9v-1c-3.3-3.7-6.1-7.4-8.2-11.1ZM87.7,218.9l20.3-51.9,20.1,51.9h-40.4Z"/>
  <polygon class="cls-2" points="84.5 164.4 80 164.4 180.2 65.9 183.4 69 84.5 164.4"/>
  <polygon class="cls-2" points="31.3 247.8 28.1 244.7 131.5 143.4 131.5 147.2 31.3 247.8"/>
  <text class="cls-1" transform="translate(215.4 171.6)"><tspan x="0" y="0">Banjara Agro</tspan></text>
</svg>