<?xml version="1.0" encoding="UTF-8"?>
<svg id="Layer_1" data-name="Layer 1" xmlns="http://www.w3.org/2000/svg" viewBox="0 0 249 343.57">
  <defs>
    <style>
      .cls-1 {
        fill: #000;
        stroke-width: 0px;
      }
    </style>
  </defs>
  <path class="cls-1" d="M146.31,103.01c-9.39-8.44-20.54-13.53-34.71-15.12v-1.11c12.42-1.59,21.49-6.05,29.77-13.21s12.58-16.72,12.58-28.82-6.21-26.91-18.79-34.07C122.59,3.5,106.67,0,87.56,0H0v.96c7.01,9.07,10.67,21.81,10.67,38.21v109.22c0,16.4-3.5,29.13-10.67,38.21v1.11h94.25l64.64-64.8c-2.07-7.8-6.53-14.49-12.58-19.9h0ZM56.68,10.51c5.25-2.55,11.14-3.82,16.88-3.82,9.71,0,17.51,3.66,23.4,10.83s8.76,16.4,8.76,27.7-3.02,20.7-8.92,27.86c-6.05,7.16-14.33,10.35-24.84,10.35h-15.12V10.51h-.16ZM102.37,169.4c-6.69,7.8-15.76,11.78-26.75,11.78s-13.69-1.59-18.95-4.62v-84.22h16.24c12.42,0,22.13,3.66,29.13,11.3,7.01,7.64,10.51,18.79,10.51,33.27s-3.34,24.84-10.03,32.64l-.16-.16Z"/>
  <path class="cls-1" d="M232.92,324.31c-3.34-5.89-6.85-12.42-10.19-20.86l-57.95-147.59h0l-49.2,48.72-39.8,99.98c-5.73,14.49-15.6,26.91-26.27,37.41v1.59h44.26v-1.59c-7.01-7.64-10.51-16.4-10.51-26.11s1.11-10.99,3.34-15.92l7.64-18.31h69.41l8.6,21.02c2.39,5.73,3.5,11.46,3.5,17.04,0,8.44-3.98,15.92-7.48,22.29v1.59h77.85v-1.59c-5.25-5.89-9.71-11.78-13.05-17.67h-.16ZM96.64,274.47l32.32-82.63,32,82.63h-64.32Z"/>
  <polygon class="cls-1" points="91.54 187.71 84.38 187.71 243.91 30.89 249 35.82 91.54 187.71"/>
  <polygon class="cls-1" points="6.85 320.48 1.75 315.55 166.37 154.27 166.37 160.32 6.85 320.48"/>
</svg>