<?xml version="1.0" encoding="UTF-8"?>
<svg id="Layer_1" data-name="Layer 1" xmlns="http://www.w3.org/2000/svg" viewBox="0 0 720 300">
  <defs>
    <style>
      .cls-1 {
        font-family: TTRamillas-Bold, 'TT Ramillas';
        font-size: 78.56px;
        font-weight: 700;
      }

      .cls-1, .cls-2 {
        fill: #fff;
      }

      .cls-3 {
        letter-spacing: -.05em;
      }

      .cls-2 {
        stroke-width: 0px;
      }
    </style>
  </defs>
  <path class="cls-2" d="M118.88,111.2c-5.92-5.29-12.93-8.45-21.83-9.46v-.68c7.78-1.01,13.52-3.77,18.7-8.28,5.18-4.51,7.91-10.53,7.91-18.08,0-9.8-3.9-16.85-11.85-21.41s-17.88-6.71-29.93-6.71H27v.57c4.45,5.75,6.67,13.75,6.67,24v68.62c0,10.25-2.22,18.25-6.67,24v.67h54.89c1.47,0,2.91.04,4.33-.02l40.58-40.68c-1.34-4.93-4.07-9.08-7.93-12.54ZM62.58,53.06c3.34-1.58,6.98-2.37,10.58-2.37,6.08,0,11.01,2.26,14.67,6.76,3.66,4.51,5.52,10.31,5.52,17.41s-1.88,12.97-5.65,17.48c-3.78,4.51-8.97,6.49-15.62,6.49h-9.5v-45.77ZM91.27,152.86c-4.23,4.9-9.88,7.35-16.75,7.35-4.85,0-8.6-.96-11.94-2.87v-52.95h10.18c7.77,0,13.86,2.28,18.25,7.12,4.39,4.85,6.59,11.76,6.59,20.89s-2.11,15.56-6.34,20.46Z"/>
  <path class="cls-2" d="M173.33,250.23c-2.14-3.66-4.26-7.85-6.4-13.14l-36.43-92.67h-.03l-30.91,30.6-24.95,62.76c-3.61,9.13-9.8,16.87-16.47,23.52v.99h27.8v-.99c-4.45-4.84-6.65-10.31-6.65-16.39,0-3.49.73-6.85,2.09-10.01l4.79-11.53h43.61l5.41,13.22c1.46,3.61,2.2,7.17,2.2,10.67,0,5.3-2.51,9.99-4.73,14.05v.99h48.93v-.99c-3.34-3.72-6.1-7.41-8.24-11.07ZM87.68,218.93l20.28-51.89,20.11,51.89h-40.39Z"/>
  <polygon class="cls-2" points="84.5 164.39 80.03 164.44 180.18 65.87 183.44 69.02 84.5 164.39"/>
  <polygon class="cls-2" points="31.34 247.83 28.12 244.68 131.54 143.41 131.54 147.16 31.34 247.83"/>
  <text class="cls-1" transform="translate(217.35 171.61)"><tspan x="0" y="0">Banjara</tspan><tspan class="cls-3" x="283.05" y="0"> </tspan><tspan x="298.76" y="0">Agro</tspan></text>
</svg>