<?xml version="1.0" encoding="UTF-8"?>
<svg id="Layer_1" data-name="Layer 1" xmlns="http://www.w3.org/2000/svg" viewBox="0 0 220 100">
  <defs>
    <style>
      .cls-1 {
        letter-spacing: 0em;
      }

      .cls-2 {
        letter-spacing: -.05em;
      }

      .cls-3 {
        stroke-width: 0px;
      }

      .cls-3, .cls-4 {
        fill: #fff;
      }

      .cls-4 {
        font-family: TTRamillas-Bold, 'TT Ramillas';
        font-size: 24.52px;
        font-weight: 700;
      }
    </style>
  </defs>
  <path class="cls-3" d="M36.14,37.64c-1.85-1.65-4.04-2.64-6.81-2.95v-.21c2.43-.32,4.22-1.18,5.84-2.58,1.62-1.41,2.47-3.29,2.47-5.64,0-3.06-1.22-5.26-3.7-6.68s-5.58-2.09-9.34-2.09H7.47v.18c1.39,1.79,2.08,4.29,2.08,7.49v21.41c0,3.2-.69,5.7-2.08,7.49v.21h17.13c.46,0,.91.01,1.35,0l12.66-12.69c-.42-1.54-1.27-2.84-2.47-3.91ZM18.58,19.5c1.04-.49,2.18-.74,3.3-.74,1.9,0,3.44.7,4.58,2.11,1.14,1.41,1.72,3.22,1.72,5.43s-.59,4.05-1.76,5.45c-1.18,1.41-2.8,2.03-4.87,2.03h-2.97v-14.28ZM27.53,50.65c-1.32,1.53-3.08,2.29-5.23,2.29-1.51,0-2.68-.3-3.72-.9v-16.52h3.18c2.43,0,4.33.71,5.7,2.22,1.37,1.51,2.06,3.67,2.06,6.52s-.66,4.86-1.98,6.39Z"/>
  <path class="cls-3" d="M53.14,81.03c-.67-1.14-1.33-2.45-2-4.1l-11.37-28.92h0l-9.65,9.55-7.79,19.59c-1.13,2.85-3.06,5.26-5.14,7.34v.31h8.68v-.31c-1.39-1.51-2.07-3.22-2.07-5.12,0-1.09.23-2.14.65-3.12l1.49-3.6h13.61l1.69,4.13c.46,1.13.69,2.24.69,3.33,0,1.65-.78,3.12-1.48,4.38v.31h15.27v-.31c-1.04-1.16-1.9-2.31-2.57-3.45ZM26.41,71.26l6.33-16.19,6.28,16.19h-12.61Z"/>
  <polygon class="cls-3" points="25.41 54.24 24.02 54.26 55.27 23.5 56.29 24.48 25.41 54.24"/>
  <polygon class="cls-3" points="8.82 80.28 7.82 79.3 40.09 47.69 40.09 48.87 8.82 80.28"/>
  <text class="cls-4" transform="translate(66.87 56.5)"><tspan x="0" y="0">Banjara</tspan><tspan class="cls-2" x="88.33" y="0"> </tspan><tspan class="cls-1" x="93.23" y="0">Agro</tspan></text>
</svg>