<?xml version="1.0" encoding="UTF-8"?>
<svg id="Layer_1" data-name="Layer 1" xmlns="http://www.w3.org/2000/svg" viewBox="0 0 389.13 67.75">
  <defs>
    <style>
      .cls-1 {
        font-family: TTRamillas-ExtraBold, 'TT Ramillas';
        font-size: 32.91px;
        font-weight: 700;
      }

      .cls-1, .cls-2 {
        fill: #000;
      }

      .cls-2 {
        stroke-width: 0px;
      }

      .cls-3 {
        letter-spacing: -.05em;
      }
    </style>
  </defs>
  <path class="cls-2" d="M28.86,20.3c-1.86-1.66-4.06-2.65-6.86-2.97v-.21c2.44-.32,4.25-1.19,5.87-2.6,1.63-1.42,2.49-3.31,2.49-5.68,0-3.08-1.23-5.29-3.72-6.73S21.03,0,17.24,0H0v.18c1.4,1.8,2.1,4.32,2.1,7.54v21.55c0,3.22-.7,5.73-2.1,7.54v.21h17.24c.46,0,.91.01,1.36,0l12.75-12.78c-.42-1.55-1.28-2.85-2.49-3.94ZM11.18,2.04c1.05-.5,2.19-.74,3.32-.74,1.91,0,3.46.71,4.61,2.12,1.15,1.42,1.73,3.24,1.73,5.47s-.59,4.07-1.77,5.49c-1.19,1.42-2.82,2.04-4.91,2.04h-2.99V2.04ZM20.19,33.38c-1.33,1.54-3.1,2.31-5.26,2.31-1.52,0-2.7-.3-3.75-.9v-16.63h3.2c2.44,0,4.35.72,5.73,2.24,1.38,1.52,2.07,3.69,2.07,6.56s-.66,4.89-1.99,6.43Z"/>
  <path class="cls-2" d="M45.96,63.97c-.67-1.15-1.34-2.46-2.01-4.13l-11.44-29.1h0l-9.71,9.61-7.84,19.71c-1.13,2.87-3.08,5.3-5.17,7.39v.31h8.73v-.31c-1.4-1.52-2.09-3.24-2.09-5.15,0-1.1.23-2.15.65-3.14l1.5-3.62h13.7l1.7,4.15c.46,1.13.69,2.25.69,3.35,0,1.66-.79,3.14-1.49,4.41v.31h15.37v-.31c-1.05-1.17-1.91-2.33-2.59-3.48ZM19.06,54.13l6.37-16.3,6.32,16.3h-12.69Z"/>
  <polygon class="cls-2" points="18.06 37 16.65 37.02 48.11 6.06 49.13 7.05 18.06 37"/>
  <polygon class="cls-2" points="1.36 63.21 .35 62.22 32.83 30.41 32.83 31.59 1.36 63.21"/>
  <text class="cls-1" transform="translate(66.36 43.83)"><tspan x="0" y="0">Banjara</tspan><tspan class="cls-3" x="121.95" y="0"> </tspan><tspan x="128.53" y="0">Agro - Nepal</tspan></text>
</svg>