<?xml version="1.0" encoding="UTF-8"?><svg id="Layer_1" xmlns="http://www.w3.org/2000/svg" viewBox="0 0 140.69 194"><path d="M82.63,58.12c-5.32-4.76-11.63-7.6-19.63-8.51v-.61c7-.91,12.16-3.39,16.82-7.45,4.66-4.05,7.12-9.47,7.12-16.26,0-8.82-3.51-15.15-10.65-19.26S60.21,0,49.36,0H0v.51c4,5.17,6,12.36,6,21.58v61.71c0,9.22-2,16.42-6,21.58v.61h49.36c1.32,0,2.62.04,3.9-.02l36.5-36.58c-1.21-4.44-3.66-8.17-7.13-11.27ZM32,5.83c3-1.42,6.27-2.13,9.52-2.13,5.47,0,9.9,2.03,13.19,6.08,3.29,4.05,4.96,9.27,4.96,15.66s-1.69,11.67-5.08,15.72c-3.4,4.05-8.07,5.84-14.05,5.84h-8.55V5.83ZM57.8,95.59c-3.8,4.41-8.89,6.61-15.07,6.61-4.36,0-7.73-.86-10.73-2.58v-47.62h9.16c6.99,0,12.46,2.05,16.42,6.41,3.95,4.36,5.93,10.57,5.93,18.78s-1.9,13.99-5.7,18.4Z" fill="#000" stroke-width="0"/><path d="M131.59,183.16c-1.93-3.29-3.83-7.06-5.76-11.82l-32.76-83.34h-.02l-27.8,27.52-22.44,56.44c-3.24,8.21-8.81,15.17-14.81,21.15v.89h25v-.89c-4-4.36-5.98-9.27-5.98-14.74,0-3.14.66-6.16,1.88-9l4.31-10.37h39.22l4.86,11.89c1.32,3.24,1.97,6.45,1.97,9.59,0,4.76-2.26,8.98-4.26,12.63v.89h44v-.89c-3-3.34-5.48-6.66-7.41-9.96ZM54.57,155l18.24-46.66,18.09,46.66h-36.33Z" fill="#000" stroke-width="0"/><polygon points="51.71 105.96 47.69 106 137.75 17.36 140.69 20.19 51.71 105.96" fill="#000" stroke-width="0"/><polygon points="3.9 180.99 1.01 178.16 94.01 87.08 94.01 90.46 3.9 180.99" fill="#000" stroke-width="0"/></svg>